<?xml version="1.0" encoding="UTF-8" standalone="no"?>
<svg
   version="1.1"
   id="svg2"
   xml:space="preserve"
   width="3820.062"
   height="2859.6646"
   viewBox="0 0 3820.062 2859.6645"
   sodipodi:docname="2_-13.svg"
   inkscape:version="1.1.1 (3bf5ae0d25, 2021-09-20)"
   xmlns:inkscape="http://www.inkscape.org/namespaces/inkscape"
   xmlns:sodipodi="http://sodipodi.sourceforge.net/DTD/sodipodi-0.dtd"
   xmlns="http://www.w3.org/2000/svg"
   xmlns:svg="http://www.w3.org/2000/svg"
   xmlns:rdf="http://www.w3.org/1999/02/22-rdf-syntax-ns#"
   xmlns:cc="http://creativecommons.org/ns#"
   xmlns:dc="http://purl.org/dc/elements/1.1/"><metadata
     id="metadata8"><rdf:RDF><cc:Work
         rdf:about=""><dc:format>image/svg+xml</dc:format><dc:type
           rdf:resource="http://purl.org/dc/dcmitype/StillImage" /></cc:Work></rdf:RDF></metadata><defs
     id="defs6" /><sodipodi:namedview
     pagecolor="#ffffff"
     bordercolor="#666666"
     borderopacity="1"
     objecttolerance="10"
     gridtolerance="10"
     guidetolerance="10"
     inkscape:pageopacity="0"
     inkscape:pageshadow="2"
     inkscape:window-width="1920"
     inkscape:window-height="1011"
     id="namedview4"
     inkscape:pagecheckerboard="0"
     showgrid="false"
     inkscape:zoom="0.079601206"
     inkscape:cx="1187.1679"
     inkscape:cy="1909.5188"
     inkscape:window-x="0"
     inkscape:window-y="0"
     inkscape:window-maximized="1"
     inkscape:current-layer="g12" /><g
     id="g10"
     inkscape:groupmode="layer"
     inkscape:label="ink_ext_XXXXXX"
     transform="matrix(1.3333333,0,0,-1.3333333,-842.54034,4037.7845)"><g
       id="g12"
       transform="scale(0.1)"><path
         d="m 10698.4,8835.9 c -835.72,0 -1443.94,269.1 -1590.59,789.5 -59.08,210.4 -37.92,443.4 52.07,687.6 264.56,-277.3 637.33,-453 1051.22,-471.2 45.8,-2 92.2,-3 139.5,-3 721.4,0 1599.2,235.2 2612.2,700.4 h 18769.5 c 406.6,0 783.3,145.8 1073.9,404.7 808.6,-134.3 1262,-285 1262,-444.4 0,-561.2 -5622.8,-1016.4 -12558.3,-1016.4 -2937.5,0 -5639.9,82.1 -7779,218.8 -240.7,-131 -496,-253.3 -762.6,-363 -821.6,-338.1 -1615.4,-503 -2269.9,-503 m -1540.19,1478.8 c -136.17,60 -207.08,121.7 -207.08,184.8 0,19.4 6.78,38.8 20.18,58 53.75,-87.4 116.46,-168.7 186.9,-242.8"
         style="fill:#c183e0;fill-opacity:1;fill-rule:nonzero;stroke:none"
         id="path16" /><path
         d="m 34799.7,20622.2 c 0,-16 0,-32 -1,-48.5 -26,-564.4 -114.1,-1293.9 -351.7,-2051.9 -491.3,-1568 -1624.1,-3260.1 -4174.3,-3872 0,0 -1280.3,-462.8 -822,1764.6 0,0 2564.2,-306.7 3146.1,2767.4 78,412.2 120.5,885.1 116,1427.9 -4.5,579.4 464.3,1050.7 1043.2,1050.7 576.9,0 1043.7,-467.3 1043.7,-1038.2"
         style="fill:#fa9b27;fill-opacity:1;fill-rule:nonzero;stroke:none"
         id="path18" /><path
         d="m 34799.7,20622.2 c 0,-16 0,-32 -1,-48.5 -26,-564.4 -114.1,-1293.9 -351.7,-2051.9 -850.1,-209.1 -1447.5,168.6 -1850.2,660 78,412.2 120.5,885.1 116,1427.9 -4.5,579.4 464.3,1050.7 1043.2,1050.7 576.9,0 1043.7,-467.3 1043.7,-1038.2"
         style="fill:#ffffff;fill-opacity:1;fill-rule:nonzero;stroke:none"
         id="path20" /><path
         d="m 30708.3,14946.2 c -151.4,110.5 -290.8,233.4 -417.1,367.1 1828.4,654.4 2791.9,1928.6 3292.8,3198.4 124.6,-31.5 257.1,-48.8 398.1,-48.8 89,0 181.5,6.9 277.4,21.5 -462.1,-1410.6 -1458.2,-2875.6 -3551.2,-3538.2"
         style="fill:#af6c3e;fill-opacity:1;fill-rule:nonzero;stroke:none"
         id="path22" /><path
         d="m 33982.1,18462.9 c -141,0 -273.5,17.3 -398.1,48.8 60.8,153.9 114.7,307.8 162.5,460.4 237.7,758 325.7,1487.5 351.7,2051.9 1,16.5 1,32.5 1,48.5 0,132.5 -25.2,259.2 -71.1,375.9 136.1,-44.1 259.9,-121.6 361.9,-228.4 165.5,-173.4 250.6,-400.1 239.6,-638.7 -27.4,-594.4 -121.4,-1337.7 -370.1,-2096.9 -95.9,-14.6 -188.4,-21.5 -277.4,-21.5"
         style="fill:#b2b2d4;fill-opacity:1;fill-rule:nonzero;stroke:none"
         id="path24" /><path
         d="m 29588.7,16236.8 c -124.1,-690.2 -74.9,-1170.3 141.4,-1359.6 191.5,-167.7 483.2,-68.7 486,-67.8 5.4,1.9 11.8,3.8 17.2,5.1 3634.3,871.9 4314.4,3987.4 4396.3,5766.8 11,238.6 -74.1,465.3 -239.6,638.7 -166.9,174.8 -392,271 -633.7,271 -234.8,0 -455.2,-91.8 -620.6,-258.5 -165.2,-166.4 -255.1,-387 -253.3,-621.2 13.1,-1663.3 -400.8,-2882.7 -1230,-3624.4 -783.3,-700.7 -1699.9,-758.3 -2063.7,-750.1 m 428.8,-1796.1 c -155.6,0 -344.5,37.7 -507.6,178.8 -338.8,293.2 -414.7,908.7 -225.4,1829.3 17.7,86.2 98.2,144.3 185.7,134.1 10.9,-1.2 1095.7,-116.4 1960.2,660.1 750.8,674.4 1125.3,1806.7 1113.2,3365.6 -2.6,325.2 122.2,631.5 351.5,862.6 229.5,231.3 535.4,358.7 861.2,358.7 335.2,0 647.3,-133.5 878.8,-375.9 230.1,-240.9 348.4,-556.3 333.1,-888.2 -40.2,-872.7 -228.3,-2161.6 -896.2,-3346.6 -791.3,-1403.8 -2053.8,-2323.1 -3752.2,-2732.4 -36,-11.8 -154,-46.1 -302.3,-46.1"
         style="fill:#000072;fill-opacity:1;fill-rule:nonzero;stroke:none"
         id="path26" /><path
         d="M 31732.2,10708.7 H 12925.8 c -195.2,-90.1 -380.8,-169.6 -556.9,-239.2 -986.7,-391.2 -1683.6,-479.3 -2150.4,-458.3 -612.44,27 -1147.3,452.8 -1267.37,1053.7 -144.6,725.5 341.72,1399.4 858.06,1888.3 504.31,477.8 1036.71,779 1036.71,779 -41.5,463.8 -19,919.1 35.5,1335.4 101.6,776 313.7,1414.9 426.3,1716.6 45,120.1 74,186.6 74,186.6 0,0 2911.5,-100.1 5668.8,364.8 1363.4,230.1 2688.8,598.3 3605.4,1185.2 859.5,550.4 1670.6,814.1 2380,916.6 1577.6,227.2 2653.8,-343.7 2653.8,-343.7 -1,366.3 18.5,769.5 77.5,1172.3 144.6,994.1 526.9,1986.3 1421,2414.6 61,29 124.6,55.5 190.1,79 478.8,173.2 840.1,-32 1112.2,-465.8 124.1,-197.1 229.2,-441.8 319.3,-719.9 187.1,-582.4 305.2,-1310.9 377.7,-2056.9 72.1,-739.5 100.1,-1496.5 107.1,-2145.4 7,-628.4 196.1,-1230.8 531.8,-1739.7 251.7,-382.7 586.9,-712.9 989.2,-961.6 11,-7 22,-13.5 33,-20.5 1038.2,-643.9 1799.7,-1198.8 2136.4,-1770.2 566.4,-959.6 -138.6,-2170.9 -1252.8,-2170.9"
         style="fill:#fa9b27;fill-opacity:1;fill-rule:nonzero;stroke:none"
         id="path28" /><path
         d="m 27056.6,13732.2 c 0,-2262.5 -3191.6,-2455.1 -9427.7,-2455.1 -4449,0 -5797.4,3687.4 -6247.2,5693.7 45.1,120.1 0,0 0,0 0,0 2911.5,-100.1 5668.8,364.8 l 581.9,-1748.7 -104.6,-217.2 c 0,0 720,-1161.2 3558.8,530.4 2839.4,1691.6 5970,94.1 5970,-2167.9"
         style="fill:#ffffff;fill-opacity:1;fill-rule:nonzero;stroke:none"
         id="path30" /><path
         d="m 12368.9,10469.5 c -986.7,-391.2 -1683.6,-479.3 -2150.4,-458.3 -612.44,27 -1147.3,452.8 -1267.37,1053.7 -144.6,725.5 341.72,1399.4 858.06,1888.3 764.01,-151.1 1853.71,-699 2559.71,-2483.7"
         style="fill:#ffffff;fill-opacity:1;fill-rule:nonzero;stroke:none"
         id="path32" /><path
         d="m 31732.2,10708.7 h -983.7 c -1326.3,1707.1 -488.3,3216.6 100.1,3941.1 960.6,-595.9 1684.1,-1115.3 2053.4,-1642.1 30.5,-42.5 58,-85.6 83,-128.1 104.1,-176.6 165.1,-361.2 188.6,-545.4 105.1,-818.5 -531.8,-1625.5 -1441.4,-1625.5"
         style="fill:#ffffff;fill-opacity:1;fill-rule:nonzero;stroke:none"
         id="path34" /><path
         d="m 32375.9,12207.6 c 229,-125.7 337.3,-368.6 241.8,-542.5 -95.4,-173.9 -358.5,-212.9 -587.5,-87.2 -229,125.7 -337.3,368.6 -241.9,542.4 95.5,173.9 358.5,213 587.6,87.3"
         style="fill:#fc90ba;fill-opacity:1;fill-rule:nonzero;stroke:none"
         id="path36" /><path
         d="m 33173.6,12334.2 c -123,-97 -329.2,-102.5 -513.8,-1.5 -229.2,126.1 -337.2,368.8 -242.2,542.9 81.6,148.1 284.2,198.1 484.4,132.1 30.5,-42.5 58,-85.6 83,-128.1 104.1,-176.6 165.1,-361.2 188.6,-545.4"
         style="fill:#fc90ba;fill-opacity:1;fill-rule:nonzero;stroke:none"
         id="path38" /><path
         d="m 31684.5,14078.3 c 0,0 -143,-504.1 -525,-747.3 -357.2,-227.4 201.8,-1178.2 979.8,-531.5 239.4,199 304.9,549.2 137.3,811.5 -98.5,154 -278.3,317.1 -592.1,467.3"
         style="fill:#fc90ba;fill-opacity:1;fill-rule:nonzero;stroke:none"
         id="path40" /><path
         d="m 29187.5,19517 c -1573.5,-822 -2799.9,87.5 -3420.3,749 154.6,1061.7 579.9,2121.4 1611.1,2493.6 1152.8,416.3 1625.1,-1356.9 1809.2,-3242.6"
         style="fill:#ffffff;fill-opacity:1;fill-rule:nonzero;stroke:none"
         id="path42" /><path
         d="m 27946.3,21660.5 c 0,-261.3 -160.8,-473.1 -359.1,-473.1 -198.4,0 -359.2,211.8 -359.2,473.1 0,261.2 160.8,473 359.2,473 198.3,0 359.1,-211.8 359.1,-473"
         style="fill:#fc90ba;fill-opacity:1;fill-rule:nonzero;stroke:none"
         id="path44" /><path
         d="m 28809.8,21573.9 c -63.1,-135.6 -176.2,-225.7 -305.7,-225.7 -198.7,0 -359.3,211.6 -359.3,473.3 0,255.2 153.6,463.3 345.7,472.3 124.1,-197.1 229.2,-441.8 319.3,-719.9"
         style="fill:#fc90ba;fill-opacity:1;fill-rule:nonzero;stroke:none"
         id="path46" /><path
         d="m 28973.2,20128.7 c 0,0 -462.3,146 -844.6,-25.5 -357.5,-160.4 -807.9,755.3 87.7,1027.6 275.5,83.8 579.5,-43.7 696.9,-306.7 69,-154.4 103.5,-376.4 60,-695.4"
         style="fill:#fc90ba;fill-opacity:1;fill-rule:nonzero;stroke:none"
         id="path48" /><path
         d="m 12304.7,10626 c -55.7,130.9 -113.6,254.8 -173.2,371.9 61.3,22.8 123.7,46.8 187.4,72 145.1,57.3 296.8,121.5 454.8,192.7 67.3,30.3 140.2,46.5 213.9,46.5 h 3940.8 c 224.4,-21.1 458,-32 700.5,-32 1159,0 2213.2,6.6 3161,32 h 9572.8 c 72.6,-141.9 159,-285.6 260.8,-431.1 H 12925.7 c -24.6,0 -48.9,-5.3 -71.2,-15.6 -193.3,-89.5 -376.4,-167.8 -549.8,-236.4"
         style="fill:#af6c3e;fill-opacity:1;fill-rule:nonzero;stroke:none"
         id="path50" /><path
         d="m 17628.9,11277.1 c -242.5,0 -476.1,10.9 -700.5,32 h 3861.5 c -947.8,-25.4 -2002,-32 -3161,-32"
         style="fill:#b2b2d4;fill-opacity:1;fill-rule:nonzero;stroke:none"
         id="path52" /><path
         d="m 10343.3,10177.9 c -41.3,0 -80.4,0.9 -117.4,2.5 -549.51,24.1 -1005.36,401.5 -1108.48,917.9 -6.33,31.6 -11.27,63.2 -14.9,94.7 235.63,-341.5 630.92,-562.2 1065.88,-581.4 41.7,-1.9 85.2,-2.9 130.6,-2.9 430.2,0 1029,90.6 1832.5,389.2 59.6,-117.1 117.5,-241 173.2,-371.9 -904.6,-357.5 -1544.4,-448.1 -1961.4,-448.1"
         style="fill:#b2b2d4;fill-opacity:1;fill-rule:nonzero;stroke:none"
         id="path54" /><path
         d="m 31732.3,10878 h -1108.8 c -101.8,145.5 -188.2,289.2 -260.8,431.1 h 1319.5 c 289.5,0 551.3,81.8 770.3,219.7 58.7,21.3 108.7,56.1 144.3,103.8 182.1,149 325.4,340.2 418.1,553.8 5.7,-225.9 -50.6,-453.4 -169.1,-660.8 -231.5,-405.5 -647.8,-647.6 -1113.5,-647.6"
         style="fill:#b2b2d4;fill-opacity:1;fill-rule:nonzero;stroke:none"
         id="path56" /><path
         d="m 32452.5,11528.8 c 50.4,31.7 98.6,66.4 144.3,103.8 -35.6,-47.7 -85.6,-82.5 -144.3,-103.8"
         style="fill:#b065a4;fill-opacity:1;fill-rule:nonzero;stroke:none"
         id="path58" /><path
         d="m 29183.2,16774.4 c -217,573.6 -426.6,1393.9 -514.5,2527.7 117,35.8 236.4,80.9 357.9,136.2 56.9,-611.7 90.2,-1303.5 98.5,-2068.6 2.2,-202.2 21.9,-401.2 58.1,-595.3"
         style="fill:#af6c3e;fill-opacity:1;fill-rule:nonzero;stroke:none"
         id="path60" /><path
         d="m 28668.7,19302.1 c -7,89.6 -13.2,181.3 -18.6,274.9 -12.3,215.5 -28.9,418.4 -49.7,609 160.2,-4.7 291.9,-35.2 346.1,-49.7 30.5,-219.5 57.2,-452.2 80.1,-698 -121.5,-55.3 -240.9,-100.4 -357.9,-136.2 m 124.6,1692.9 c -96.7,93.2 -225.2,149.5 -360.4,159.7 -20.3,79.5 -41.9,155.6 -64.7,228.4 41.9,-22.5 87.8,-34.9 135.9,-34.9 66,0 127.8,23.4 180.8,64.3 38.5,-129.5 74.7,-268.9 108.4,-417.5 m -642.1,915.6 c -186.7,346.2 -423.1,570.9 -708.9,691.8 91.6,32.4 178,48.6 260,48.6 123.2,0 236.4,-36.5 342.1,-109.9 101.6,-70.5 196.6,-173.1 284.9,-306.4 -91.2,-66.9 -157.9,-184.7 -178.1,-324.1"
         style="fill:#b2b2d4;fill-opacity:1;fill-rule:nonzero;stroke:none"
         id="path62" /><path
         d="m 28504.1,21348.2 c -48.1,0 -94,12.4 -135.9,34.9 -62.8,200.3 -135.1,375.6 -217,527.5 20.2,139.4 86.9,257.2 178.1,324.1 134.8,-203.7 253.6,-479.1 355.6,-822.2 -53,-40.9 -114.8,-64.3 -180.8,-64.3"
         style="fill:#b065a4;fill-opacity:1;fill-rule:nonzero;stroke:none"
         id="path64" /><path
         d="m 28946.5,20136.3 c -54.2,14.5 -185.9,45 -346.1,49.7 -40.1,366.8 -96,688.7 -167.5,968.7 135.2,-10.2 263.7,-66.5 360.4,-159.7 58.6,-258.3 109.7,-544.9 153.2,-858.7"
         style="fill:#b065a4;fill-opacity:1;fill-rule:nonzero;stroke:none"
         id="path66" /><path
         d="m 26541.8,18336.7 c 0,0 -942.8,724.3 -2784,724.3 -295.8,0 -615.1,-18.7 -957.2,-62.1 61.5,90.5 110.8,175.6 150.1,251.8 304.1,50.9 584.9,70.3 836.6,70.3 140.6,0 272.3,-6 393.6,-16.1 871.8,-71.9 1424.2,-357.9 1429.4,-360.6 24.8,-13.2 52.1,-19.8 79.3,-19.8 30.4,0 60.7,8.2 87.6,24.4 26.9,16.2 48.2,39.1 62.3,65.9 281,-165.9 525.5,-386.5 702.3,-678.1"
         style="fill:#fde1be;fill-opacity:1;fill-rule:nonzero;stroke:none"
         id="path68" /><path
         d="m 12161.9,14703.8 c -325,67.2 -628.1,148 -908.4,236.8 273.8,-76.1 571.3,-145.2 891.2,-201.6 5.7,-11.7 11.4,-23.4 17.2,-35.2 m 5621.8,447 c -64.3,36.3 -114.8,73.9 -153.4,107.4 1140.9,425.6 1997.8,980.7 2585.6,1449.6 884.1,705.2 1339.5,1344.6 1445.4,1502.7 401.7,236.9 687,504.4 888.3,752.6 85.1,13.4 168.6,25.3 251,35.8 -193.6,-285 -507.7,-624 -1009,-912.3 0,0 -495.3,-791.1 -1603,-1630.1 -609.7,-461.8 -1404.6,-938.2 -2404.9,-1305.7"
         style="fill:#af6c3e;fill-opacity:1;fill-rule:nonzero;stroke:none"
         id="path70" /><path
         d="m 14124.1,14506.3 c -722.3,0 -1377.7,76.7 -1962.2,197.5 -5.8,11.8 -11.5,23.5 -17.2,35.2 522.3,-92.1 1104.4,-150.6 1740.8,-150.6 487.2,0 1006.4,34.3 1554.7,113.9 821,119.2 1550.3,317.2 2190.1,555.9 38.6,-33.5 89.1,-71.1 153.4,-107.4 -624.3,-229.4 -1328.6,-416.5 -2117.6,-531 -543.1,-79 -1057.7,-113.5 -1542,-113.5"
         style="fill:#b2b2d4;fill-opacity:1;fill-rule:nonzero;stroke:none"
         id="path72" /><path
         d="m 22549.6,18963.1 c 68.6,84.7 127.5,167.1 177.9,245.3 75.7,16 150.1,30.1 223.2,42.3 -39.3,-76.2 -88.6,-161.3 -150.1,-251.8 -82.4,-10.5 -165.9,-22.4 -251,-35.8"
         style="fill:#b19da7;fill-opacity:1;fill-rule:nonzero;stroke:none"
         id="path74" /><path
         d="m 10551.7,9962.6 -13.2,25.9 -10.6,22.5 c -6.5,14.9 -12.6,29.7 -18,44.2 -10.8,29.6 -19.8,58.9 -27.8,88.8 -14.9,59.4 -24.3,119.8 -29.6,180.4 -8.9,121.1 -0.7,243.5 28.7,360.6 12.7,58.7 30.4,116.3 51.9,171.8 l 34.1,82.3 c 12.1,27 27.8,52.6 41.5,78.4 56,103.4 130.4,195 214.2,273 11.1,10.4 28.6,9.8 39,-1.3 5.9,-6.4 8.3,-14.9 7.1,-22.9 l -0.4,-2.8 c -8.6,-56.4 -23.1,-107.9 -31.7,-160.8 -8.3,-52.9 -18.6,-103.5 -23.3,-155 -7.4,-50.6 -9.7,-101.4 -13.5,-150.9 -3,-24.5 -0.2,-49.9 -1.5,-74.3 -0.8,-24.6 -2.1,-48.9 -0.3,-73.4 2.7,-97.5 12.1,-192.8 24.7,-286.6 5.3,-47.1 13.6,-93.4 20.6,-139.8 l 11.9,-68.5 c 1.6,-11.6 3.6,-22.5 5.6,-33.3 l 2.4,-15.9 c 0.8,-4.9 1.9,-10.9 1,-12 L 10745,9943 c -39.7,-49.9 -112.4,-58.1 -162.4,-18.4 -13.1,10.5 -23.7,23.9 -30.9,38"
         style="fill:#000072;fill-opacity:1;fill-rule:nonzero;stroke:none"
         id="path76" /><path
         d="m 9366.97,10177 -13.23,25.9 -10.6,22.6 c -6.45,14.8 -12.57,29.6 -17.99,44.1 -10.75,29.7 -19.73,58.9 -27.71,88.8 -14.92,59.5 -24.34,119.9 -29.62,180.4 -8.98,121.2 -0.71,243.5 28.66,360.7 12.75,58.6 30.42,116.3 51.93,171.8 l 34.09,82.2 c 12.1,27 27.8,52.6 41.47,78.5 56.06,103.3 130.42,194.9 214.19,273 11.16,10.4 28.64,9.8 39.04,-1.4 5.95,-6.4 8.3,-14.8 7.13,-22.8 l -0.44,-2.8 c -8.6,-56.5 -23.07,-108 -31.67,-160.9 -8.32,-52.9 -18.6,-103.5 -23.34,-154.9 -7.4,-50.7 -9.67,-101.5 -13.47,-150.9 -3.01,-24.6 -0.27,-50 -1.57,-74.4 -0.78,-24.6 -2.1,-48.8 -0.24,-73.4 2.71,-97.5 12.11,-192.7 24.66,-286.6 5.32,-47 13.62,-93.4 20.6,-139.8 l 11.99,-68.4 c 1.56,-11.6 3.52,-22.6 5.57,-33.4 l 2.39,-15.9 c 0.78,-4.8 1.85,-10.8 0.95,-12 l -119.43,-150 c -39.77,-49.9 -112.45,-58.1 -162.38,-18.4 -13.21,10.6 -23.73,23.9 -30.98,38"
         style="fill:#000072;fill-opacity:1;fill-rule:nonzero;stroke:none"
         id="path78" /><path
         d="m 11013.9,13753 c 0.6,-33.4 -0.1,-69.6 -2.2,-104.9 -2.2,-35.6 -4.8,-71.4 -8.7,-107.4 -7,-72.1 -16.2,-144 -35.3,-220.1 l -0.5,-2 c -7.3,-29 -36.7,-46.5 -65.6,-39.3 -11.2,2.9 -20.7,9 -27.7,17.1 -54.4,63 -90.5,132.2 -121.8,201.4 -15.9,34.7 -29.8,69.8 -42.5,105.1 -12.7,35.6 -23.5,70.4 -32,108.1 l -0.3,1.5 c -20.7,91.8 37,183 128.8,203.7 91.8,20.7 183,-37 203.6,-128.8 2.6,-11.2 3.9,-23.3 4.2,-34.4"
         style="fill:#000072;fill-opacity:1;fill-rule:nonzero;stroke:none"
         id="path80" /><path
         d="m 25758.9,19248.6 c 51.6,-25.1 91.8,-50 135.4,-76.8 42.4,-27.1 83.4,-56 123.8,-85.4 80.7,-59.1 156.2,-125.2 227.6,-195.4 71.1,-70.5 136.2,-148 193.5,-230.3 56.9,-82.8 104.3,-172.5 138.1,-265.8 7.9,-21.6 -3.3,-45.4 -24.8,-53.2 -15.5,-5.7 -32.1,-1.5 -43.2,9.2 l -3,3 c -33.7,33 -61.5,68.1 -96.9,97.8 -31.6,32.1 -67,60.8 -101.5,89.4 -71.2,55.4 -143.1,108.1 -219.3,155.2 -75.8,47.5 -154,90.7 -232.7,132.1 -39.5,20.6 -79.5,40 -119.5,58.5 -38.6,19.2 -82.2,37.7 -116,52.4 l -3.6,1.6 c -85.8,37.5 -124.9,137.4 -87.5,223.2 37.5,85.8 137.5,124.9 223.3,87.5 1.9,-0.9 4.4,-2.1 6.3,-3"
         style="fill:#000072;fill-opacity:1;fill-rule:nonzero;stroke:none"
         id="path82" /><path
         d="m 11494.7,16798.2 c -144.6,-372.9 -602.8,-1685.2 -480.2,-3051 5.9,-66.2 -27.5,-129.9 -85.3,-162.6 -20.7,-11.8 -2070.68,-1190.1 -1811.78,-2486.3 103.12,-516.4 558.97,-893.8 1108.48,-917.9 481.8,-21 1327.9,80 2628.6,682 22.3,10.3 46.6,15.6 71.2,15.6 h 18806.6 c 465.7,0 882,242.1 1113.5,647.6 228.3,399.8 225.8,873.8 -6.8,1268.1 -347.8,589.6 -1221,1181 -2112.7,1732.3 -990.1,612 -1588.7,1675.1 -1601.2,2843.7 -31,2872.6 -414.8,4709.2 -1080.7,5171.4 -177.8,123.4 -376.8,142.7 -608.7,59 -1309.5,-472.9 -1580.1,-2167.4 -1576.6,-3505.7 0.2,-59.5 -30.9,-114.8 -81.9,-145.5 -50.9,-30.7 -114.4,-32.6 -166.9,-4.6 -5.2,2.7 -557.6,288.7 -1429.4,360.6 -802.2,66.4 -2049.2,-40.9 -3433.8,-927 -2609.7,-1670.1 -8327.5,-1602.2 -9252.4,-1579.7 M 10350.6,9838.8 c -47.3,0 -93.7,1 -139.5,3 -705.9,31 -1292.27,520.4 -1426.02,1190.1 -274.51,1374.6 1450.22,2526.7 1883.32,2791.9 -115.6,1654.4 530.1,3151 558.2,3215.2 27.9,63.6 93,103.4 161,101.3 64.7,-2.3 6482.1,-201.4 9176.8,1523.1 1471.7,941.8 2803.7,1051.6 3662,977.8 589.4,-50.6 1038.6,-190.1 1296.6,-289.6 33.7,1400.1 390.2,3059 1797.5,3567.2 337.8,122.1 646.5,88.6 917.1,-99.3 972.4,-674.9 1203.6,-3334.2 1226.3,-5446.2 11.3,-1051.8 549.8,-2008.4 1440.6,-2559 1073.3,-663.6 1862.7,-1231.8 2226.4,-1848.5 295.2,-500.3 298.6,-1101.6 9.2,-1608.3 -292.6,-512.4 -818.9,-818.3 -1407.8,-818.3 H 12962.8 C 11949.8,10074 11072,9838.8 10350.6,9838.8"
         style="fill:#000072;fill-opacity:1;fill-rule:nonzero;stroke:none"
         id="path84" /><path
         d="m 21080.6,14536.7 c -89,-1053.2 -422.7,-2198.4 -1453.9,-2198.4 -1217.8,0 -1488.5,1104.2 -1525,1903.7 -20.5,453.3 34.5,808.6 34.5,808.6 0,0 1129.8,1193.9 2918.9,1211.7 0,0 101.6,-829.5 25.5,-1725.6"
         style="fill:#fa9b27;fill-opacity:1;fill-rule:nonzero;stroke:none"
         id="path86" /><path
         d="m 21080.6,14536.7 c -89,-1053.2 -422.7,-2198.4 -1453.9,-2198.4 -1217.8,0 -1488.5,1104.2 -1525,1903.7 640.4,424.8 1728.1,879.6 2978.9,294.7"
         style="fill:#ffffff;fill-opacity:1;fill-rule:nonzero;stroke:none"
         id="path88" /><path
         d="m 21086.9,15900.2 c -14.9,224.2 -31.8,362.1 -31.8,362.1 -108.6,-1 -215,-6.5 -318.6,-15.7 10,154.8 139.6,250.9 271.5,250.9 78.6,0 158,-34.2 213.3,-110.5 61.6,-85 116.7,-191.7 156,-325.6 -97.1,-50 -194.1,-103.8 -290.7,-161.3"
         style="fill:#af6c3e;fill-opacity:1;fill-rule:nonzero;stroke:none"
         id="path90" /><path
         d="m 19825.5,12318.9 c -85.9,0 -176.2,6.7 -271.2,20.7 23.7,-0.9 47.9,-1.3 72.4,-1.3 1031.2,0 1364.9,1145.2 1453.9,2198.4 v 0 0 c 45.1,530.7 27.8,1038 6.3,1363.5 96.3,57.4 193.3,111.2 290.4,161.2 29.3,-99.5 49.7,-214.1 57.6,-345.9 50.9,-856.4 62.1,-3396.6 -1609.4,-3396.6 m -1209.1,413.2 c -39.8,38.3 -75.8,80.2 -106.6,125.8 32.9,-43.9 68.4,-86 106.6,-125.8"
         style="fill:#b2b2d4;fill-opacity:1;fill-rule:nonzero;stroke:none"
         id="path92" /><path
         d="m 21080.6,14536.7 c -155.9,72.9 -309.3,129.7 -459.5,172.3 79.5,571.3 106.4,1140.1 114.8,1524.8 0.1,4.3 0.3,8.6 0.6,12.8 103.6,9.2 210,14.7 318.6,15.7 0,0 16.9,-137.9 31.8,-362.1 21.5,-325.5 38.8,-832.8 -6.3,-1363.5 v 0"
         style="fill:#af6c3e;fill-opacity:1;fill-rule:nonzero;stroke:none"
         id="path94" /><path
         d="m 19626.7,12338.3 c -24.5,0 -48.7,0.4 -72.4,1.3 -0.5,0.1 -1.1,0.1 -1.6,0.2 0,0 -601,69.5 -936.3,392.3 -38.2,39.8 -73.7,81.9 -106.6,125.8 -0.5,0.7 -0.9,1.3 -1.3,1.9 0,0 242.5,-65.3 557.5,-65.3 468.7,0 1098.1,144.4 1328.9,862.5 102.9,320 175.3,686.6 226.2,1052 150.2,-42.6 303.6,-99.4 459.5,-172.3 v 0 c -89,-1053.2 -422.7,-2198.4 -1453.9,-2198.4"
         style="fill:#b2b2d4;fill-opacity:1;fill-rule:nonzero;stroke:none"
         id="path96" /><path
         d="m 18166.5,15046.1 c 19.1,-341.8 41.4,-678 94.9,-1003.3 25.6,-162.6 58.3,-322.4 102.4,-476.5 43.1,-154.1 100.1,-302.4 175.7,-436.3 75.3,-133.8 169.5,-252.5 282,-345.7 112.1,-94.1 243,-160.1 383.7,-204.1 141.1,-42.5 296.3,-56.4 447.9,-56.6 74,0.6 145.8,11 215.1,27.2 69.3,16.2 135.9,40.3 198.2,73.1 252.9,125.8 439.9,383.1 564.6,673.5 125.3,292.3 201.1,615.5 250.1,943 49.1,328.4 67.9,663.5 76.7,999.4 10.2,335.6 12.4,674.9 17.4,1012.7 l 0.1,3 c 0.7,44.7 37.4,80.4 82.1,79.7 38.1,-0.5 69.7,-27.5 77.7,-63.2 152.8,-681.2 154.8,-1379.2 75.7,-2076.1 -44,-348 -112.9,-698.7 -252.3,-1037.1 -70.2,-168.5 -157.5,-334.8 -276.1,-486.1 -116.9,-151 -267.5,-288.1 -447.3,-378.7 -178.7,-92.7 -380.2,-135.6 -573.4,-139.1 -189.3,0.3 -377.2,17.8 -563.9,74.2 -185.4,57.6 -361.3,156.4 -507.8,285.4 -147.1,128.9 -263.1,286.2 -350.6,452 -174.4,333.6 -250.2,694.6 -265.5,1048.2 -3.9,88.6 -3.5,177 0.7,265 3.5,88 9.8,175.5 21.2,262.5 21.2,174.1 54.6,345.6 110.3,513.2 5.4,16.3 22.9,25.1 39.1,19.7 12.4,-4.2 20.5,-15.4 21.2,-27.6 l 0.1,-1.4"
         style="fill:#000072;fill-opacity:1;fill-rule:nonzero;stroke:none"
         id="path98" /><path
         d="m 19122.7,12411.1 c 2.9,29.7 10.3,70.4 15.8,106.6 l 18.4,112.8 c 13.2,75.6 23.9,152 34.7,229.3 5.6,38.8 8.3,77.5 13.4,116.8 l 4.4,58.9 c 2.2,19.8 3.7,39.7 4.3,59.5 6.3,80.1 4.6,160 6.6,245 v 2.4 c 0.5,21.8 18.6,39 40.5,38.5 13.5,-0.3 25.4,-7.6 32.2,-18.1 47.6,-73.7 87.9,-154.2 116.2,-238.1 29.9,-83.6 51.2,-170.6 64.4,-258.5 14.5,-87.9 20.2,-177 18.2,-266 -1.8,-44.4 -4.7,-89 -10.9,-133.4 -6.7,-45.5 -13.6,-86.2 -29.2,-137.1 -27.4,-89.4 -122.1,-139.7 -211.6,-112.2 -78.3,24 -126.6,99.7 -118.9,178.3 l 1.5,15.3"
         style="fill:#000072;fill-opacity:1;fill-rule:nonzero;stroke:none"
         id="path100" /><path
         d="m 20007.7,12527.7 c 2.9,29.7 10.2,70.4 15.8,106.6 l 18.4,112.8 c 13.2,75.6 23.8,152 34.6,229.3 5.7,38.8 8.4,77.4 13.4,116.8 l 4.5,58.9 c 2.2,19.8 3.7,39.7 4.3,59.5 6.2,80.1 4.5,160 6.5,245 l 0.1,2.3 c 0.5,21.9 18.6,39.1 40.4,38.6 13.5,-0.3 25.4,-7.6 32.3,-18.1 47.6,-73.8 87.9,-154.2 116.1,-238.1 30,-83.7 51.2,-170.6 64.4,-258.5 14.5,-87.9 20.3,-177 18.3,-266 -1.8,-44.4 -4.8,-88.9 -11,-133.4 -6.6,-45.5 -13.6,-86.2 -29.1,-137.1 -27.4,-89.4 -122.1,-139.7 -211.6,-112.2 -78.4,24 -126.7,99.7 -118.9,178.3 l 1.5,15.3"
         style="fill:#000072;fill-opacity:1;fill-rule:nonzero;stroke:none"
         id="path102" /><path
         d="M 12713.7,26870 C 8344.14,25061.5 7770.11,20520.4 7770.11,20520.4 c -657.18,1289.4 -996.36,2602.7 -1156.41,3781.8 -147.81,1092 -142.41,2069.2 -93.22,2806.6 55.06,823.9 767.27,1452.5 1590.91,1399.1 1561.65,-100.8 2721.21,-518.9 3485.71,-907.9 746.7,-378.7 1116.6,-730 1116.6,-730"
         style="fill:#fa9b27;fill-opacity:1;fill-rule:nonzero;stroke:none"
         id="path104" /><path
         d="m 7439.74,21685.8 c -309.27,816.5 -506.25,1626.1 -625.11,2393.1 160.2,-126.5 355.78,-189.7 551.23,-189.7 12.06,0 24.08,0.3 36.14,0.7 73.8,-382.5 174.76,-776.7 310.01,-1174.9 -112,-330.4 -202.75,-673.4 -272.27,-1029.2 m 3934.36,5187.3 c -141.9,80.2 -307.4,164.5 -496.4,247.1 136.9,98.3 268.9,189 394.2,271.9 102.3,-46.6 198.9,-93.3 290,-139.6 107.7,-54.7 207.5,-108.7 299.4,-161.1 -164.5,-66.7 -327.4,-139.6 -487.2,-218.3"
         style="fill:#af6c3e;fill-opacity:1;fill-rule:nonzero;stroke:none"
         id="path106" /><path
         d="m 11271.9,27392.1 c -756.4,344.5 -1820.07,679.5 -3195.67,768.3 -32.71,2.1 -65.15,3.1 -97.48,3.1 -448.27,0 -856.06,-201.1 -1132.29,-521.8 226.67,419.4 669.77,700 1168.12,700 28.52,0 57.23,-0.9 86.04,-2.8 1467.71,-94.8 2576.68,-478.8 3326.08,-846 -50.3,-32.2 -102,-65.8 -154.8,-100.8"
         style="fill:#fde1be;fill-opacity:1;fill-rule:nonzero;stroke:none"
         id="path108" /><path
         d="m 11861.3,27091.4 c -91.9,52.4 -191.7,106.4 -299.4,161.1 -91.1,46.3 -187.7,93 -290,139.6 52.8,35 104.5,68.6 154.8,100.8 238,-116.6 439.8,-231.5 605.3,-334.9 -57.1,-21.5 -114,-43.7 -170.7,-66.6"
         style="fill:#e7d3c5;fill-opacity:1;fill-rule:nonzero;stroke:none"
         id="path110" /><path
         d="m 8014.58,28341.7 c -692.24,0 -1277.93,-541.5 -1324.91,-1244.3 -103.17,-1541.9 -0.92,-3800.5 1011.53,-6042.3 110.15,467.6 330.81,1209.3 750.88,2038.5 617.77,1219.3 1797.42,2849.2 3938.12,3820.7 -505.8,377.3 -1936.7,1272.6 -4289.58,1424.6 -28.81,1.9 -57.52,2.8 -86.04,2.8 M 7769.95,20351 c -62.84,0 -121.59,35 -150.88,92.5 -1252.43,2457.2 -1380.57,4987 -1267.58,6676.5 61.38,917.7 856.21,1616.2 1771,1557.1 3111.61,-201 4644.21,-1623.7 4707.91,-1684.2 41.6,-39.5 60.4,-97.4 49.9,-153.8 -10.4,-56.4 -48.7,-103.7 -101.8,-125.7 -2204.3,-912.4 -3401.95,-2549.3 -4018.41,-3761.8 -671.68,-1321.1 -820.51,-2441.4 -821.92,-2452.5 -9.43,-73.8 -65.82,-132.8 -139.07,-145.6 -9.77,-1.7 -19.48,-2.5 -29.15,-2.5"
         style="fill:#000072;fill-opacity:1;fill-rule:nonzero;stroke:none"
         id="path112" /><path
         d="m 11904.7,26298.8 c 0,0 -1098.2,1042.2 -3333.94,1186.7 -596.87,38.5 -1112.62,-416.9 -1152.55,-1013.7 -74.29,-1110.9 -11.67,-2974 905.17,-4772.8 0,0 415.81,3289.6 3581.32,4599.8"
         style="fill:#fc90ba;fill-opacity:1;fill-rule:nonzero;stroke:none"
         id="path114" /><path
         d="m 7907.19,23227.8 c -346.83,1222.2 -376.95,2379.5 -319.91,3232.7 32.42,484.5 436.18,857.8 913.34,857.8 19.58,0 39.4,-0.6 59.22,-1.9 1094.03,-70.7 1910.36,-364.6 2448.46,-636.3 -65.9,-37.2 -131.2,-75.4 -196.1,-114.8 -481.7,190.3 -1111.13,358.7 -1890.56,409.1 -21.83,1.4 -43.52,2.1 -65.09,2.1 -523.02,0 -963.67,-408.9 -999.06,-938.1 -42.53,-635.9 -36.25,-1538.8 176.36,-2528.9 -44.1,-92.7 -86.36,-186.7 -126.66,-281.7"
         style="fill:#b065a4;fill-opacity:1;fill-rule:nonzero;stroke:none"
         id="path116" /><path
         d="m 8500.62,27318.3 c -477.16,0 -880.92,-373.3 -913.34,-857.8 -72.41,-1083.1 -4.3,-2656.5 673.83,-4230.4 88.82,341.1 245.76,823.3 514.7,1354.1 443.94,876.2 1285.39,2042.9 2802.69,2755.8 -409.1,290.3 -1416,872.8 -3018.66,976.4 -19.82,1.3 -39.64,1.9 -59.22,1.9 m -177.35,-5788.7 c -62.84,0 -121.59,35.1 -150.88,92.5 -912.06,1789.4 -1005.52,3631.1 -923.29,4861 46.19,690.4 643.66,1216.2 1332.62,1171.5 2270.78,-146.8 3392.98,-1188.6 3439.68,-1232.8 41.6,-39.5 60.4,-97.4 49.9,-153.9 -10.4,-56.4 -48.8,-103.7 -101.8,-125.6 -1270.3,-525.8 -2241.3,-1434.3 -2885.73,-2700.1 -483.75,-950.3 -591.26,-1756.5 -592.28,-1764.5 -9.48,-73.8 -65.87,-132.8 -139.12,-145.5 -9.71,-1.7 -19.48,-2.6 -29.1,-2.6"
         style="fill:#000072;fill-opacity:1;fill-rule:nonzero;stroke:none"
         id="path118" /><path
         d="m 14594.3,27143 c 4703.4,-491.4 6545,-4681.9 6545,-4681.9 263.4,1423 215.2,2778.6 33.4,3954.6 -168.8,1088.9 -451.8,2024.2 -708.7,2717.2 -287,774.2 -1148.6,1174.4 -1923,889 -1468.6,-540.6 -2461.4,-1271.2 -3083.7,-1861.5 -608.2,-575.4 -863,-1017.4 -863,-1017.4"
         style="fill:#fa9b27;fill-opacity:1;fill-rule:nonzero;stroke:none"
         id="path120" /><path
         d="m 21124.7,23672.3 c -167.8,321.3 -352.4,624.4 -553.7,909.3 16.4,420.2 1.2,826.9 -36.9,1214.6 201.2,51.1 384.5,171.1 509.4,348.2 104.2,-769.2 145.5,-1601.5 81.2,-2472.1 M 15877.9,27527 c -176.1,30 -352.2,53.5 -529.3,70.7 73.3,76.4 153.6,156.5 241.2,239.5 74.2,70.3 153.5,142.6 238.4,216.3 143.7,-43.9 296,-93.2 455.2,-148.6 -157.8,-133 -292.3,-260.7 -405.5,-377.9"
         style="fill:#af6c3e;fill-opacity:1;fill-rule:nonzero;stroke:none"
         id="path122" /><path
         d="m 15828.2,28053.5 c -61.2,18.7 -120.8,36.4 -178.8,53.1 613.1,564.3 1566.6,1247 2949.9,1756.4 150.2,55.2 304.1,81.4 455.7,81.4 354.4,0 695.8,-143.3 945,-393.3 -240.2,154.4 -522.3,239.7 -812.3,239.7 -170.9,0 -344.6,-29.6 -514.2,-92.1 -1293.6,-476.2 -2218.1,-1099.9 -2845.3,-1645.2"
         style="fill:#fde1be;fill-opacity:1;fill-rule:nonzero;stroke:none"
         id="path124" /><path
         d="m 15348.6,27597.7 c -61.1,5.9 -122.8,11.1 -184,15.4 129,146.3 289.6,313.9 484.8,493.5 58,-16.7 117.6,-34.4 178.8,-53.1 -84.9,-73.7 -164.2,-146 -238.4,-216.3 -87.6,-83 -167.9,-163.1 -241.2,-239.5"
         style="fill:#e7d3c5;fill-opacity:1;fill-rule:nonzero;stroke:none"
         id="path126" /><path
         d="m 14891.2,27277.6 c 2329,-322.6 3923.5,-1550 4862.6,-2543.4 638.5,-675.5 1060.9,-1323.9 1299.5,-1740.8 333.3,2436.9 -210.9,4631.4 -748.2,6080.5 -255,687.5 -1020,1041.5 -1705.8,789.1 -2219.3,-817.3 -3332.5,-2080.6 -3708.1,-2585.4 m 6248.1,-4985.9 c -66.6,0 -127.8,39.2 -155.1,101.3 -4.5,10.2 -465.7,1041.9 -1485.3,2117.5 -935.8,987.2 -2549.4,2216 -4922.3,2464 -57,5.9 -107.2,40.4 -133.3,91.5 -26,51.1 -24.5,111.9 4.2,161.6 43.9,76.1 1108.7,1875.9 4034.8,2953.4 860.3,317 1820.7,-126.9 2140.5,-989.3 588.8,-1587.8 1185.2,-4049.6 683.1,-6761.4 -13.5,-73.1 -73.2,-128.9 -147,-137.4 -6.6,-0.8 -13.2,-1.2 -19.6,-1.2"
         style="fill:#000072;fill-opacity:1;fill-rule:nonzero;stroke:none"
         id="path128" /><path
         d="m 15532.3,26825.4 c 0,0 756.6,1311.5 2859,2085.6 561.2,206.7 1185.2,-83.3 1393.2,-644.1 387.1,-1043.9 856.8,-2847.9 489.2,-4833.1 0,0 -1334,3035.6 -4741.4,3391.6"
         style="fill:#fc90ba;fill-opacity:1;fill-rule:nonzero;stroke:none"
         id="path130" /><path
         d="m 20238.1,25017.7 c -65.7,79.6 -132.9,157.7 -201.6,234.1 -77.7,1009.7 -328.4,1877.2 -549.9,2474.7 -150,404.4 -534.3,656.4 -942.3,656.4 -114.4,0 -230.6,-19.8 -344.1,-61.6 -732.9,-269.9 -1288.4,-610.4 -1696.2,-929.7 -73.9,19.4 -148,37.6 -222.3,54.7 437.5,412.7 1136.1,925.7 2168.1,1305.7 103.5,38.2 209.6,56.2 314,56.2 372.6,0 724.5,-230 861.8,-600.2 297.3,-801.7 597.5,-1919.9 612.5,-3190.3"
         style="fill:#b065a4;fill-opacity:1;fill-rule:nonzero;stroke:none"
         id="path132" /><path
         d="m 15832.5,26957.8 c 1657.9,-251.9 2796.5,-1131.3 3471.4,-1845.3 408.8,-432.4 696.4,-850.1 878.6,-1151.9 202.6,1701.8 -179.5,3229.6 -556.9,4247.4 -175.8,474 -703.3,718.2 -1175.8,544 -1513.3,-557.3 -2309.6,-1400.3 -2617.3,-1794.2 m 4441.2,-3693.5 c -66.6,0 -127.8,39.3 -155.1,101.3 -3.2,7.3 -335.5,749.7 -1069.5,1523.2 -977.8,1030.3 -2166.9,1625.2 -3534.4,1768.1 -57.1,6 -107.3,40.4 -133.3,91.5 -26.1,51.1 -24.5,112 4.1,161.7 32.2,55.7 811.8,1373.6 2947.2,2160 647.5,238.5 1370.1,-95.5 1610.7,-744.3 428.5,-1155.7 862.6,-2947.9 497,-4922.8 -13.6,-73.2 -73.2,-128.9 -147.1,-137.5 -6.6,-0.8 -13.1,-1.2 -19.6,-1.2"
         style="fill:#000072;fill-opacity:1;fill-rule:nonzero;stroke:none"
         id="path134" /><path
         d="m 22275.4,20231.9 c 0,0 332.8,-240.7 567.6,-371.4 0,0 -192.5,-885.8 -1301.5,-1523.6 0,0 -495.2,-791 -1603.1,-1630.4 -990,-749.8 -2469.2,-1538.6 -4522.6,-1836.6 -2053.4,-298.1 -3695.8,37.5 -4858.1,474.9 -1300.9,489.7 -2000.53,1107.2 -2000.53,1107.2 -1244.57,296.2 -1680.95,1090.7 -1680.95,1090.7 187.86,192.1 438.56,517.4 438.56,517.4 -401.3,331.7 -645.23,906.3 -645.23,906.3 594.62,306.4 771.39,689.9 771.39,689.9 -19.41,1115.7 132.86,2077.8 401.36,2905.7 412.96,1271.8 1099.4,2228.4 1856.82,2943.7 2195.48,2073.7 5478.88,2550.4 8173.28,1186.4 1534.8,-776.7 3070.9,-2238.1 3828.2,-4965.8 0,0 278.5,-317.5 935.7,-442.1 0,0 -70.5,-620.2 -360.9,-1052.3"
         style="fill:#fa9b27;fill-opacity:1;fill-rule:nonzero;stroke:none"
         id="path136" /><path
         d="m 19938.4,16706.5 c -990,-749.8 -2469.2,-1538.6 -4522.6,-1836.6 -2053.4,-298.1 -3695.8,37.5 -4858.1,474.9 211.1,2184.7 1887.6,4026 4156.9,4355.4 2269.3,329.4 4400.2,-959.2 5223.8,-2993.7"
         style="fill:#ffffff;fill-opacity:1;fill-rule:nonzero;stroke:none"
         id="path138" /><path
         d="m 11487.9,26692 c 0,0 77,-1180.5 711.8,-2446 23.7,-47.3 -26.4,-97.4 -73.5,-73.4 -325.6,166.3 -1109,694.8 -1373.5,2021.2 0,0 523.3,381.1 735.2,498.2"
         style="fill:#dd6b2c;fill-opacity:1;fill-rule:nonzero;stroke:none"
         id="path140" /><path
         d="m 13592.7,27429.1 c 0,0 -348.1,-21.1 -730.1,-184 0,0 501.7,-2862.3 1226.7,-3532.7 25.4,-23.5 66.4,-17.6 84.1,12.2 504.4,848.8 171.5,3735.6 171.5,3735.6 -412.6,47.6 -752.2,-31.1 -752.2,-31.1"
         style="fill:#dd6b2c;fill-opacity:1;fill-rule:nonzero;stroke:none"
         id="path142" /><path
         d="m 15820.1,27320.9 c 0,0 261.9,-1153.7 13.1,-2547.5 -9.3,-52.1 53,-85.9 91.3,-49.4 264.9,252 865.7,981.4 742.2,2328.2 0,0 -610.1,216.7 -846.6,268.7"
         style="fill:#dd6b2c;fill-opacity:1;fill-rule:nonzero;stroke:none"
         id="path144" /><path
         d="m 10577.7,15518.6 c -49.5,18.8 -97.6,37.7 -144.4,56.6 -1135.42,457.7 -1757.83,998.5 -1763.84,1003.8 -20.85,18.4 -45.89,31.3 -72.9,37.8 -893.36,212.7 -1345.66,699.9 -1504.25,909.1 170.56,189.9 347.9,419.4 356.69,430.9 55.81,72.3 44.19,175.9 -26.22,234.1 -250.09,206.7 -437.7,524.9 -531.1,705.1 525.39,313.9 695.55,673 703.12,689.3 10.64,23.2 15.97,48.4 15.53,73.9 -13.54,770.1 55.24,1493 205.57,2166.5 14.03,-1466.2 411.88,-4230.3 2976.6,-5389.4 -100.4,-295.7 -172.8,-602.6 -214.8,-917.7 m 9292.1,1348.9 c -129.8,290.2 -286.6,563.8 -466.8,818.7 2129.2,1840.6 1724.7,4603.6 1321.2,6013.4 335.7,-603.1 607.1,-1276.4 813.1,-2018.6 6.9,-24.6 19.1,-47.3 35.9,-66.5 11.9,-13.5 277.2,-309.4 870.1,-461 -38.3,-199.3 -127.6,-557.7 -308.6,-827 -51,-75.8 -32.7,-178.4 41.4,-231.9 11.7,-8.5 246.9,-178.1 464.4,-311.7 -92.8,-246.1 -387.9,-841.5 -1183.6,-1299.3 -24,-13.8 -44.3,-33.4 -59.1,-56.8 -4.3,-6.9 -447.3,-702.4 -1405.7,-1464 -39.5,-31.4 -80.3,-63.2 -122.3,-95.3"
         style="fill:#af6c3e;fill-opacity:1;fill-rule:nonzero;stroke:none"
         id="path146" /><path
         d="m 13885.6,14927.4 c -1395.4,0 -2518.9,290.4 -3307.9,591.2 42,315.1 114.4,622 214.8,917.7 735.4,-332.4 1649,-532.9 2782.8,-532.9 511.2,0 1067.2,40.8 1671.8,128.6 1945.6,282.4 3270,888.5 4155.9,1654.2 180.2,-254.9 337,-528.5 466.8,-818.7 -897.7,-686.1 -2374.4,-1524.4 -4478.4,-1829.8 v 0 c -531.5,-77.2 -1034.1,-110.3 -1505.8,-110.3"
         style="fill:#b2b2d4;fill-opacity:1;fill-rule:nonzero;stroke:none"
         id="path148" /><path
         d="m 7852.31,21981.4 c 327.35,1337.4 983.6,2476.1 1963,3401 297.49,281 615.59,532 949.69,752.2 16.4,-76.5 34.6,-150.3 54.3,-221.4 -373.9,-238.9 -729,-514.7 -1059.31,-826.8 -757.44,-715.2 -1443.88,-1671.8 -1856.84,-2943.6 -17.26,-53.2 -34.23,-107 -50.84,-161.4 M 20423.6,24195 c -739.6,981.7 -1621.8,1638.4 -2490.3,2077.9 -405.6,205.3 -824.2,368.8 -1250.7,491.5 -1.3,73.8 -4.9,149.7 -10.9,227.7 383,-116.2 759.3,-266.4 1124.4,-451.1 1078.9,-546 1957,-1331 2627.5,-2346 m -8818.7,1752.6 c -58.4,269.3 -88.8,482.4 -103.8,610.4 446.7,222 914.2,394.7 1393.3,516.7 25.6,-132.1 66,-332.7 119.7,-572.4 -185.3,-133.7 -437.7,-266.7 -726.8,-374.6 -243.2,-90.8 -478.4,-151.1 -682.4,-180.1 m 4277.1,998.1 c -392.5,65.4 -788.5,97.9 -1183.5,97.9 -104.4,0 -208.7,-2.3 -312.9,-6.8 -8.3,98.9 -16.2,183.8 -22.7,251.1 91.4,3.5 183,5.3 274.7,5.3 403.2,0 807.6,-34.6 1208,-104.5 10.7,-61.7 23.6,-143.6 36.4,-243"
         style="fill:#fde1be;fill-opacity:1;fill-rule:nonzero;stroke:none"
         id="path150" /><path
         d="m 10819.3,25913.2 c -19.7,71.1 -37.9,144.9 -54.3,221.4 237.8,156.8 483.5,297.9 736.1,423.4 15,-128 45.4,-341.1 103.8,-610.4 -94,-13.3 -181.4,-20 -259.9,-20 -112.9,0 -207.5,13.8 -277.1,41.9 -25,10 -51.4,15.1 -77.6,15.1 -36.8,0 -73.2,-9.9 -105.3,-29.9 -21.9,-13.7 -43.9,-27.5 -65.7,-41.5"
         style="fill:#f5d2bf;fill-opacity:1;fill-rule:nonzero;stroke:none"
         id="path152" /><path
         d="m 13014.1,26502.3 c -53.7,239.7 -94.1,440.3 -119.7,572.4 480.6,122.4 972.9,193.9 1468.5,213.2 6.5,-67.3 14.4,-152.2 22.7,-251.1 -307.6,-13.4 -614.2,-46.4 -917.3,-98.7 -64.3,-11.1 -121,-52.4 -147.1,-112.1 -43.4,-98.8 -151.7,-211.5 -307.1,-323.7"
         style="fill:#f5d2bf;fill-opacity:1;fill-rule:nonzero;stroke:none"
         id="path154" /><path
         d="m 16682.6,26764.4 c -264.4,76 -531.7,136.4 -800.6,181.3 -12.8,99.4 -25.7,181.3 -36.4,243 277.8,-48.5 553.5,-113.9 826.1,-196.6 6,-78 9.6,-153.9 10.9,-227.7"
         style="fill:#f5d2bf;fill-opacity:1;fill-rule:nonzero;stroke:none"
         id="path156" /><path
         d="m 8439.92,16329.7 c -41.19,45.9 -77.44,92.4 -113.75,140.7 -36.47,47.6 -70.68,97.3 -104.05,147.9 -33.3,50.5 -65.21,102.3 -94.46,156.6 -28.88,54.4 -57.01,109.7 -77.37,170.5 -8.35,25 5.13,52.1 30.15,60.4 15.9,5.4 32.65,1.8 44.88,-7.9 l 1.73,-1.4 c 44.8,-36.1 90.58,-71.4 136.84,-106.2 l 138.48,-104.7 137.84,-105.2 c 45.51,-35 91.77,-71 134.5,-106.3 72.36,-59.7 82.59,-166.8 22.85,-239.2 -59.74,-72.4 -166.85,-82.6 -239.23,-22.9 -6.35,5.3 -13.02,11.8 -18.41,17.7"
         style="fill:#000072;fill-opacity:1;fill-rule:nonzero;stroke:none"
         id="path158" /><path
         d="m 21394.1,18420.5 c 30.9,46 65.1,93.7 98.7,140.1 l 102.3,140.1 103,139.7 c 34.4,46.5 68.3,93.5 100.9,140.8 l 1.1,1.6 c 15,21.7 44.8,27.1 66.5,12.1 13.8,-9.5 21,-25.3 20.6,-40.9 -2.2,-64.1 -13.5,-125 -25.7,-185.5 -12.6,-60.3 -28.5,-119 -46,-177 -17.7,-57.9 -36.3,-115.3 -57.8,-171.4 -21,-56.6 -42.6,-111.4 -69,-167.1 -40.1,-84.8 -141.4,-121.1 -226.3,-81 -84.8,40.2 -121,141.5 -80.9,226.3 3.5,7.5 8.2,15.5 12.6,22.2"
         style="fill:#000072;fill-opacity:1;fill-rule:nonzero;stroke:none"
         id="path160" /><path
         d="m 15391.4,15037.7 24.4,-167.7 -24.4,167.7 c 2202.5,319.7 3717.6,1223.3 4600.7,1925.1 958.4,761.6 1401.4,1457.1 1405.7,1464 14.8,23.4 35.1,43 59.1,56.8 795.7,457.8 1090.8,1053.2 1183.6,1299.3 -217.5,133.6 -452.7,303.2 -464.4,311.7 -74.1,53.5 -92.4,156.1 -41.4,231.9 181,269.3 270.3,627.7 308.6,827 -592.9,151.6 -858.2,447.5 -870.1,461 -16.8,19.2 -29,41.9 -35.9,66.5 -635.6,2290.1 -1894.3,3925.3 -3741.2,4860 -2630.3,1331.1 -5837.6,865.6 -7980.79,-1158.6 -1504.88,-1421.2 -2246.77,-3346.7 -2204.98,-5723.2 0.44,-25.5 -4.89,-50.7 -15.53,-73.9 -7.57,-16.3 -177.73,-375.4 -703.12,-689.3 93.4,-180.2 281.01,-498.4 531.1,-705.1 70.41,-58.2 82.03,-161.8 26.22,-234.1 -8.79,-11.5 -186.13,-241 -356.69,-430.9 158.59,-209.2 610.89,-696.4 1504.25,-909.1 27.01,-6.5 52.05,-19.4 72.9,-37.8 6.01,-5.3 628.42,-546.1 1763.84,-1003.8 1046.2,-421.7 2755.8,-857.2 4958.1,-537.5 m -1505.9,-449.3 c -1543.3,0 -2767.6,343.7 -3594.2,678.7 -1048.15,424.7 -1666.61,908.2 -1813.05,1029.7 -1272.51,317.4 -1731.35,1129.4 -1750.49,1164.2 -35.88,65.3 -24.85,146.5 27.25,199.9 108.25,111 240.97,271.2 329.1,380.8 -353.71,354.1 -560.89,836 -570.46,858.5 -34.66,81.6 -0.54,176.2 78.32,216.8 435.89,224.7 625.25,493.1 678.81,581.6 -33.3,2455 744.38,4449.9 2311.82,5930.2 2246.9,2121.9 5609,2610 8366.5,1214.5 1923.6,-973.5 3236.5,-2665.2 3902.6,-5028.2 75.4,-68.6 333.3,-272.8 816.1,-364.4 87.2,-16.6 146.8,-97.5 136.8,-185.6 -2.8,-24.3 -64.4,-545.3 -302.9,-985.3 115.7,-80 288.5,-195.9 423.9,-271.6 65.1,-36.3 98.7,-111 82.9,-183.9 -8.4,-38.7 -217.5,-947.7 -1347.2,-1613.8 -105.9,-158.1 -561.3,-797.5 -1445.4,-1502.7 -917.4,-731.8 -2490.6,-1673.8 -4775.7,-2005.5 -548.3,-79.6 -1067.5,-113.9 -1554.7,-113.9"
         style="fill:#000072;fill-opacity:1;fill-rule:nonzero;stroke:none"
         id="path162" /><path
         d="m 17393.7,19332.8 c -204.3,90.7 -415.2,167.7 -631.8,230 92.7,98 188.5,222.6 286.6,378.6 0,0 268.2,-234.3 345.2,-608.6"
         style="fill:#af6c3e;fill-opacity:1;fill-rule:nonzero;stroke:none"
         id="path164" /><path
         d="m 15036.5,16685.9 c -1193.4,0 -1702.1,964 -1702.1,964 -706.1,489.5 -405.2,1271.6 -405.2,1271.6 337.1,-194.9 599.2,-270.3 803.2,-270.3 452.5,0.1 618.6,371.5 679.5,634.8 91.7,-35.1 197.7,-56.5 319.5,-56.5 90.3,0 189.4,11.8 297.9,38.6 254.8,63.1 424.8,175.3 537.7,303.9 129.4,-149.8 335.6,-324.4 593.9,-324.4 178.2,0 381.3,83.2 601,315.2 216.6,-62.3 427.5,-139.3 631.8,-230 41.1,-199.9 27.7,-439.8 -110.2,-705.2 0,0 -0.3,-1458.6 -1634.3,-1863.2 -221.5,-54.8 -425.5,-78.5 -612.7,-78.5"
         style="fill:#b2b2d4;fill-opacity:1;fill-rule:nonzero;stroke:none"
         id="path166" /><path
         d="m 14773.2,20302.3 c 0,0 -422.5,-100 -711.8,-283.6 -124.7,-79.2 -159.6,-245.2 -80.1,-369.7 143.9,-225.2 455.1,-527.7 1048,-380.9 592.9,146.9 727,559.6 749.2,825.9 12.2,147.2 -96.1,277.7 -243.4,289.5 -341.5,27.5 -761.9,-81.2 -761.9,-81.2"
         style="fill:#000072;fill-opacity:1;fill-rule:nonzero;stroke:none"
         id="path168" /><path
         d="m 15145.4,19524.6 16.1,-38.6 19.7,-43.2 c 14.1,-28.8 29,-57.4 44.1,-85.8 30.6,-56.7 66,-110.3 102.6,-161.6 74.4,-102.2 161.6,-189.9 258.2,-256.6 193.4,-133.3 430.7,-171.9 680.8,-124 31.1,6.2 62.4,11.3 93.1,20.4 31.2,7.7 61.9,16 91.1,26.7 60.6,17.7 115.7,42.8 169.2,69.4 51.6,28.7 99.5,61.2 141.7,98.5 41.3,38.3 76.2,81.4 106.7,128.4 123,187.1 148.7,462.4 132.1,745.2 l -0.3,5 c -1.6,27.7 19.5,51.6 47.3,53.2 18.2,1.1 34.8,-7.7 44.4,-21.7 91.4,-132.8 141.9,-283 162.7,-446.4 18.8,-162.2 -4.4,-341.2 -86.2,-501.6 -40.1,-80.1 -94.6,-153 -156.2,-217.6 -62.8,-63.4 -132.7,-117.1 -205.8,-163.3 -147.9,-89.8 -303.8,-144.1 -463.3,-178.6 -80,-18.1 -163.4,-28.1 -247.7,-33.7 -85,-2.2 -171.2,0 -257.2,15.8 -171.7,27.3 -340.7,96.5 -480.8,198.2 -70.4,50.5 -134.8,107.4 -192.9,168.8 -57.5,61.9 -107.9,128.4 -153.1,197.1 -45.4,68.7 -83.8,140.8 -117.4,214.5 -16.9,36.9 -32.3,74.4 -46,112.8 l -19.7,58.4 c -6.6,20.9 -11.6,37.5 -18.7,64.6 -24.4,93 31.4,188.2 124.4,212.5 85.1,22.3 172,-22.5 204.8,-101.6 l 6.3,-15.2"
         style="fill:#000072;fill-opacity:1;fill-rule:nonzero;stroke:none"
         id="path170" /><path
         d="m 15148.3,19512.7 c 6.4,-27.3 9.6,-44.3 13.6,-65.9 l 9.8,-60.8 c 5.8,-40.4 9.7,-80.7 12,-121.2 4.6,-81 4.3,-162.6 -3.8,-244.5 -7.9,-81.9 -21.4,-164.3 -43.4,-245.9 -22.8,-81.3 -53.2,-161.7 -91.9,-239.2 -76.5,-155.3 -193.6,-295.4 -332.8,-399.7 -68.6,-54.1 -143.8,-96.3 -220.1,-133.9 -77.2,-34.4 -155.6,-64.5 -234.8,-85.8 -157.2,-43.9 -320.4,-68.6 -493.1,-58.2 -86.2,6.8 -173.1,21.6 -258.2,48.4 -84.6,28.4 -166.9,67.5 -239.7,119.6 -147.2,103.7 -251.2,251.2 -310.2,403.4 -57.9,154.2 -83.4,310.7 -64.5,470.7 3.3,27.7 28.3,47.4 55.9,44.2 18.1,-2.2 32.9,-13.7 39.9,-29.1 l 2.1,-4.7 c 117.3,-257.8 268.5,-489.3 464.6,-597.4 48.9,-27.3 99.9,-49.3 154.2,-63.8 54.8,-13.3 112.3,-19.7 171.3,-21.1 59.8,1.5 120.2,5 182.1,17.6 30.8,4.2 61.8,11.2 92.9,18.9 31.5,6.3 61.5,16.4 91.9,25.4 243.6,74.3 435.5,219.2 544.4,427.4 54.3,104 90.5,222.3 108.6,347.4 8.4,62.4 14.7,126.4 15.3,190.8 0.2,32.1 0,64.4 -1,96.4 l -2.7,47.4 -3.8,41.7 -1.5,16.4 c -8.7,95.7 61.8,180.5 157.5,189.3 87.6,8 166,-50.4 185.4,-133.8"
         style="fill:#000072;fill-opacity:1;fill-rule:nonzero;stroke:none"
         id="path172" /><path
         d="m 16824.7,18846.8 c 0,0 60.5,-492.7 -136.8,-986.4 -153.6,-384.9 -463.7,-770.8 -1081.4,-923.7 -617.6,-152.9 -1072,43.7 -1387.4,312.5 -404.8,344.5 -581.2,808.5 -581.2,808.5 0,0 1444.9,-172.4 1351,1373.7 638.3,-1411.3 1835.8,-584.6 1835.8,-584.6"
         style="fill:#000072;fill-opacity:1;fill-rule:nonzero;stroke:none"
         id="path174" /><path
         d="m 16687.9,17860.4 c -153.6,-384.9 -463.7,-770.8 -1081.4,-923.7 -617.6,-152.9 -1072,43.7 -1387.4,312.5 0,0 849.8,1501.6 2468.8,611.2"
         style="fill:#ff4a8b;fill-opacity:1;fill-rule:nonzero;stroke:none"
         id="path176" /><path
         d="m 13917.7,17884.2 c 212.7,-366.7 727.5,-1005.9 1646.9,-778.1 919.6,227.7 1076.5,1032.9 1093.5,1456.6 -224.6,-95.4 -565.8,-187.3 -922,-88.3 -233.3,64.8 -437.4,200.2 -610.4,404.3 -57.8,-261.3 -175.1,-476.3 -351.2,-642.4 -268.9,-253.7 -613.6,-331.6 -856.8,-352.1 z m 1267.7,-1175.7 c -1205.1,-0.2 -1705,1272.9 -1710.4,1287.4 -21.7,57 -12,121.2 25.5,169.4 37.6,48 97.7,73.1 158.2,65.8 5,-0.5 542.9,-57.4 878,260.5 209.9,199.2 303.4,511.8 278,929.3 -5.1,84 50.5,159.7 132.2,179.9 81.7,20.3 166.2,-20.7 200.9,-97.4 172.3,-381.1 401,-614 679.4,-692.3 445.2,-125 894.2,176.5 898.6,179.6 50.3,34.2 115,40 170.5,14.9 55.4,-25.1 94,-77.1 101.3,-137.6 2.1,-17.1 192.1,-1718.9 -1349.1,-2100.6 -164.7,-40.7 -319,-58.9 -463.1,-58.9"
         style="fill:#000072;fill-opacity:1;fill-rule:nonzero;stroke:none"
         id="path178" /><path
         d="m 10872.4,20355.9 c 129.2,-696.8 664.1,-1181.8 1194.7,-1083.4 530.6,98.5 855.9,743.1 726.6,1439.9 -129.3,696.7 -664.2,1181.8 -1194.7,1083.3 -530.6,-98.4 -855.9,-743 -726.6,-1439.8"
         style="fill:#000072;fill-opacity:1;fill-rule:nonzero;stroke:none"
         id="path180" /><path
         d="m 11744.4,20758 c 37.8,-203.5 194,-345.2 349,-316.4 155,28.7 250,217 212.2,420.5 -37.7,203.5 -194,345.2 -348.9,316.5 -155,-28.8 -250,-217.1 -212.3,-420.6"
         style="fill:#ffffff;fill-opacity:1;fill-rule:nonzero;stroke:none"
         id="path182" /><path
         d="m 17963.6,22418.4 c -142.9,-72.9 -286.6,-154.4 -417.6,-241.9 -131.8,-88.1 -254,-184.4 -365,-288.5 -57.1,-50.7 -106.7,-107.6 -158.6,-161.8 l -70.5,-87.2 c -11.3,-14.9 -24.4,-28.4 -35,-43.7 l -31.5,-46 c -89.4,-119.4 -152.7,-254.8 -214.4,-391.2 l -321.7,247.9 c 12.8,8.6 20.9,13.4 29.8,18.8 9,5.6 17.6,10.6 26,15.1 17,9.4 34.2,18.8 51,26.8 33.7,17.4 67.8,32.2 101.8,47.2 68.1,29.2 138.1,52.2 208.6,72.4 141.1,39.8 287.2,60.8 432.9,61.9 145.4,0.6 291,-14.2 428.6,-55.3 138.9,-34 267.8,-97.1 386.8,-167.4 34.9,-20.5 46.4,-65.4 25.9,-100.2 -15.3,-25.9 -44,-38.9 -72.1,-35.5 l -8.7,1.2 c -64.6,8 -125.7,22.6 -188,28.9 -62.6,5.1 -123.2,13.8 -184.6,13.2 -121.9,4 -241.8,-6.3 -358.3,-27.3 -116.7,-19.4 -230.3,-52.5 -339.1,-95.4 -27.3,-10.2 -53.7,-22.8 -80.6,-33.9 l -78.2,-37.7 c -25.3,-13.5 -50.9,-26.6 -74.7,-41.2 -12.4,-7 -23.6,-14.4 -35,-21.7 -5.8,-3.6 -11.4,-7 -16.2,-10.4 l -11.6,-8 -4.6,-3.1 c -96.5,-66.1 -228.3,-41.4 -294.4,55.2 -40.6,59.3 -46.4,133.3 -22.8,195.8 67.1,173.9 145.4,347.5 260.5,497 51.4,79.1 119.1,145.1 180.9,215.1 69.1,62.8 135.8,128.2 212.3,180.6 148.6,110.1 311,197.9 480.9,259.6 171,60.9 344.1,100.6 529.4,103.4 40.7,0.6 74.1,-31.9 74.7,-72.5 0.5,-29 -15.9,-54.3 -40,-66.7 l -6.9,-3.5"
         style="fill:#000072;fill-opacity:1;fill-rule:nonzero;stroke:none"
         id="path184" /><path
         d="m 14478.8,19766.6 c -66,0 -113.3,16.6 -123.5,48.9 -18.3,57.3 87.8,142.3 237,189.8 65.4,20.9 128.2,31 179.7,31 65.9,0 113.2,-16.7 123.5,-48.9 18.3,-57.4 -87.9,-142.4 -237,-189.8 -65.5,-20.9 -128.3,-31 -179.7,-31"
         style="fill:#4d4d9d;fill-opacity:1;fill-rule:nonzero;stroke:none"
         id="path186" /></g></g></svg>
